<mxfile host="drawio-plugin" modified="2022-10-10T00:42:12.636Z" agent="5.0 (Android 6.0)" etag="6AO-oVNoWIzjeQjr2HiV" version="15.5.4" type="embed" pages="2"><diagram id="eCedGf2uXN-FvLZCMcMq" name="Collection Framework"><mxGraphModel dx="2230" dy="908" grid="1" gridSize="10" guides="1" tooltips="1" connect="1" arrows="1" fold="1" page="1" pageScale="1" pageWidth="850" pageHeight="1100" math="0" shadow="0"><root><mxCell id="0"/><mxCell id="1" parent="0"/><mxCell id="2" value="«interface»&lt;br&gt;&lt;b&gt;Iterator&lt;/b&gt;" style="html=1;" parent="1" vertex="1"><mxGeometry x="-100" y="40" width="110" height="50" as="geometry"/></mxCell><mxCell id="3" value="«interface»&lt;br&gt;&lt;b&gt;Iterable&lt;/b&gt;" style="html=1;" parent="1" vertex="1"><mxGeometry x="240" y="40" width="110" height="50" as="geometry"/></mxCell><mxCell id="5" value="«interface»&lt;br&gt;&lt;b&gt;Collection&lt;/b&gt;" style="html=1;" parent="1" vertex="1"><mxGeometry x="240" y="160" width="110" height="50" as="geometry"/></mxCell><mxCell id="7" value="«interface»&lt;br&gt;&lt;b&gt;Set&lt;/b&gt;" style="html=1;" parent="1" vertex="1"><mxGeometry x="-430" y="342" width="110" height="50" as="geometry"/></mxCell><mxCell id="8" value="" style="endArrow=block;dashed=1;endFill=0;endSize=12;html=1;rounded=0;entryX=0.5;entryY=1;entryDx=0;entryDy=0;exitX=0.5;exitY=0;exitDx=0;exitDy=0;" parent="1" source="12" target="5" edge="1"><mxGeometry width="160" relative="1" as="geometry"><mxPoint x="305" y="170" as="sourcePoint"/><mxPoint x="305" y="100" as="targetPoint"/></mxGeometry></mxCell><mxCell id="9" value="«interface»&lt;br&gt;&lt;b&gt;List&lt;/b&gt;" style="html=1;" parent="1" vertex="1"><mxGeometry x="500" y="342" width="110" height="50" as="geometry"/></mxCell><mxCell id="11" value="«interface»&lt;br&gt;&lt;b&gt;Map&lt;/b&gt;" style="html=1;" parent="1" vertex="1"><mxGeometry x="810" y="160" width="110" height="50" as="geometry"/></mxCell><mxCell id="12" value="AbstractCollection" style="swimlane;fontStyle=1;align=center;verticalAlign=top;childLayout=stackLayout;horizontal=1;startSize=26;horizontalStack=0;resizeParent=1;resizeParentMax=0;resizeLast=0;collapsible=1;marginBottom=0;" parent="1" vertex="1"><mxGeometry x="170" y="470" width="250" height="208" as="geometry"><mxRectangle x="440" y="280" width="140" height="26" as="alternateBounds"/></mxGeometry></mxCell><mxCell id="15" value="+ isEmpty(): boolean&#10;+ contains(Object): boolean&#10;+ toArrays(): Object[]&#10;+ toArrays(T[] a): T[]&#10;+ remove(Object): boolean&#10;+ containsAll(Collection&lt;?&gt;): boolean&#10;+ addAll(Collection&lt;? extends T&gt;): boolean&#10;+ removeAll(Collection&lt;?&gt;): boolean&#10;+ retainAll(Collection&lt;?&gt;): boolean&#10;+ clear(): void&#10;+ toString(): String" style="text;strokeColor=none;fillColor=none;align=left;verticalAlign=top;spacingLeft=4;spacingRight=4;overflow=hidden;rotatable=0;points=[[0,0.5],[1,0.5]];portConstraint=eastwest;" parent="12" vertex="1"><mxGeometry y="26" width="250" height="174" as="geometry"/></mxCell><mxCell id="14" value="" style="line;strokeWidth=1;fillColor=none;align=left;verticalAlign=middle;spacingTop=-1;spacingLeft=3;spacingRight=3;rotatable=0;labelPosition=right;points=[];portConstraint=eastwest;" parent="12" vertex="1"><mxGeometry y="200" width="250" height="8" as="geometry"/></mxCell><mxCell id="16" value="Extends" style="endArrow=block;endSize=16;endFill=0;html=1;rounded=0;entryX=0.5;entryY=1;entryDx=0;entryDy=0;exitX=0.5;exitY=0;exitDx=0;exitDy=0;" parent="1" source="5" target="3" edge="1"><mxGeometry width="160" relative="1" as="geometry"><mxPoint x="100" y="410" as="sourcePoint"/><mxPoint x="260" y="410" as="targetPoint"/></mxGeometry></mxCell><mxCell id="17" value="Extends" style="endArrow=block;endSize=16;endFill=0;html=1;rounded=0;exitX=0.5;exitY=0;exitDx=0;exitDy=0;" parent="1" source="9" target="5" edge="1"><mxGeometry width="160" relative="1" as="geometry"><mxPoint x="305" y="170" as="sourcePoint"/><mxPoint x="240" y="250" as="targetPoint"/></mxGeometry></mxCell><mxCell id="18" value="Extends" style="endArrow=block;endSize=16;endFill=0;html=1;rounded=0;exitX=0.5;exitY=0;exitDx=0;exitDy=0;entryX=0;entryY=0.5;entryDx=0;entryDy=0;" parent="1" source="7" target="5" edge="1"><mxGeometry width="160" relative="1" as="geometry"><mxPoint x="305" y="290" as="sourcePoint"/><mxPoint x="300" y="210" as="targetPoint"/></mxGeometry></mxCell><mxCell id="22" value="AbstractList&lt;E&gt;" style="swimlane;fontStyle=1;align=center;verticalAlign=top;childLayout=stackLayout;horizontal=1;startSize=26;horizontalStack=0;resizeParent=1;resizeParentMax=0;resizeLast=0;collapsible=1;marginBottom=0;" parent="1" vertex="1"><mxGeometry x="390" y="860" width="330" height="200" as="geometry"><mxRectangle x="440" y="280" width="140" height="26" as="alternateBounds"/></mxGeometry></mxCell><mxCell id="23" value="" style="line;strokeWidth=1;fillColor=none;align=left;verticalAlign=middle;spacingTop=-1;spacingLeft=3;spacingRight=3;rotatable=0;labelPosition=right;points=[];portConstraint=eastwest;" parent="22" vertex="1"><mxGeometry y="26" width="330" height="8" as="geometry"/></mxCell><mxCell id="24" value="+ add(E): boolean&#10;+ index(Object): int&#10;+ lastIndexOf(Object): int&#10;+ clear(): void&#10;+ addAll(int index, Collection&lt;? extends T&gt;): boolean&#10;+ iterator(): Iterator&#10;+ listIterator(): ListIterator&#10;+ listIterator(int index): ListIterator&#10;+ equal(Object): boolean&#10;+ hashCode(): String&#10;+ subList(int start, int end): List&lt;E&gt;" style="text;strokeColor=none;fillColor=none;align=left;verticalAlign=top;spacingLeft=4;spacingRight=4;overflow=hidden;rotatable=0;points=[[0,0.5],[1,0.5]];portConstraint=eastwest;" parent="22" vertex="1"><mxGeometry y="34" width="330" height="166" as="geometry"/></mxCell><mxCell id="25" value="Extends" style="endArrow=block;endSize=16;endFill=0;html=1;rounded=0;exitX=0.5;exitY=0;exitDx=0;exitDy=0;entryX=0.503;entryY=1.018;entryDx=0;entryDy=0;entryPerimeter=0;" parent="1" source="22" target="15" edge="1"><mxGeometry width="160" relative="1" as="geometry"><mxPoint x="105" y="290" as="sourcePoint"/><mxPoint x="560" y="490" as="targetPoint"/></mxGeometry></mxCell><mxCell id="26" value="" style="endArrow=block;dashed=1;endFill=0;endSize=12;html=1;rounded=0;entryX=0.5;entryY=1;entryDx=0;entryDy=0;exitX=0.5;exitY=0;exitDx=0;exitDy=0;" parent="1" source="22" target="9" edge="1"><mxGeometry width="160" relative="1" as="geometry"><mxPoint x="575" y="290" as="sourcePoint"/><mxPoint x="305" y="220" as="targetPoint"/></mxGeometry></mxCell><mxCell id="27" value="«interface»&lt;br&gt;&lt;b&gt;Queue&lt;/b&gt;" style="html=1;" parent="1" vertex="1"><mxGeometry x="-30" y="342" width="110" height="50" as="geometry"/></mxCell><mxCell id="29" value="Extends" style="endArrow=block;endSize=16;endFill=0;html=1;rounded=0;exitX=0.5;exitY=0;exitDx=0;exitDy=0;entryX=0.087;entryY=1.039;entryDx=0;entryDy=0;entryPerimeter=0;" parent="1" source="27" target="5" edge="1"><mxGeometry width="160" relative="1" as="geometry"><mxPoint x="105" y="290" as="sourcePoint"/><mxPoint x="310" y="220" as="targetPoint"/></mxGeometry></mxCell><mxCell id="30" value="AbstractQueue&lt;E&gt;" style="swimlane;fontStyle=1;align=center;verticalAlign=top;childLayout=stackLayout;horizontal=1;startSize=26;horizontalStack=0;resizeParent=1;resizeParentMax=0;resizeLast=0;collapsible=1;marginBottom=0;" parent="1" vertex="1"><mxGeometry x="-140" y="860" width="330" height="180" as="geometry"><mxRectangle x="440" y="280" width="140" height="26" as="alternateBounds"/></mxGeometry></mxCell><mxCell id="31" value="" style="line;strokeWidth=1;fillColor=none;align=left;verticalAlign=middle;spacingTop=-1;spacingLeft=3;spacingRight=3;rotatable=0;labelPosition=right;points=[];portConstraint=eastwest;" parent="30" vertex="1"><mxGeometry y="26" width="330" height="8" as="geometry"/></mxCell><mxCell id="32" value="+ add(E): boolean&#10;+ remove(): E&#10;+ element(): E&#10;+ clear(): void&#10;+ addAll(Collection&lt;? extends T&gt;): boolean" style="text;strokeColor=none;fillColor=none;align=left;verticalAlign=top;spacingLeft=4;spacingRight=4;overflow=hidden;rotatable=0;points=[[0,0.5],[1,0.5]];portConstraint=eastwest;" parent="30" vertex="1"><mxGeometry y="34" width="330" height="146" as="geometry"/></mxCell><mxCell id="33" value="" style="endArrow=block;dashed=1;endFill=0;endSize=12;html=1;rounded=0;entryX=0.5;entryY=1;entryDx=0;entryDy=0;exitX=0.5;exitY=0;exitDx=0;exitDy=0;" parent="1" source="30" target="27" edge="1"><mxGeometry width="160" relative="1" as="geometry"><mxPoint x="425" y="580" as="sourcePoint"/><mxPoint x="305" y="340" as="targetPoint"/></mxGeometry></mxCell><mxCell id="34" value="Extends" style="endArrow=block;endSize=16;endFill=0;html=1;rounded=0;exitX=0.5;exitY=0;exitDx=0;exitDy=0;entryX=0.232;entryY=1.023;entryDx=0;entryDy=0;entryPerimeter=0;" parent="1" source="30" target="15" edge="1"><mxGeometry width="160" relative="1" as="geometry"><mxPoint x="425" y="580" as="sourcePoint"/><mxPoint x="540" y="460" as="targetPoint"/></mxGeometry></mxCell><mxCell id="35" value="AbstractSet&lt;E&gt;" style="swimlane;fontStyle=1;align=center;verticalAlign=top;childLayout=stackLayout;horizontal=1;startSize=26;horizontalStack=0;resizeParent=1;resizeParentMax=0;resizeLast=0;collapsible=1;marginBottom=0;" parent="1" vertex="1"><mxGeometry x="-540" y="860" width="330" height="180" as="geometry"><mxRectangle x="440" y="280" width="140" height="26" as="alternateBounds"/></mxGeometry></mxCell><mxCell id="36" value="" style="line;strokeWidth=1;fillColor=none;align=left;verticalAlign=middle;spacingTop=-1;spacingLeft=3;spacingRight=3;rotatable=0;labelPosition=right;points=[];portConstraint=eastwest;" parent="35" vertex="1"><mxGeometry y="26" width="330" height="8" as="geometry"/></mxCell><mxCell id="37" value="+ equals(Object o): boolean&#10;+ hashCode(): int&#10;+ removeAll(): boolean" style="text;strokeColor=none;fillColor=none;align=left;verticalAlign=top;spacingLeft=4;spacingRight=4;overflow=hidden;rotatable=0;points=[[0,0.5],[1,0.5]];portConstraint=eastwest;" parent="35" vertex="1"><mxGeometry y="34" width="330" height="146" as="geometry"/></mxCell><mxCell id="38" value="" style="endArrow=block;dashed=1;endFill=0;endSize=12;html=1;rounded=0;entryX=0.5;entryY=1;entryDx=0;entryDy=0;exitX=0.5;exitY=0;exitDx=0;exitDy=0;" parent="1" source="35" target="7" edge="1"><mxGeometry width="160" relative="1" as="geometry"><mxPoint x="35" y="580" as="sourcePoint"/><mxPoint x="-95" y="340" as="targetPoint"/></mxGeometry></mxCell><mxCell id="39" value="Extends" style="endArrow=block;endSize=16;endFill=0;html=1;rounded=0;exitX=0.5;exitY=0;exitDx=0;exitDy=0;entryX=-0.004;entryY=0.706;entryDx=0;entryDy=0;entryPerimeter=0;" parent="1" source="35" target="15" edge="1"><mxGeometry width="160" relative="1" as="geometry"><mxPoint x="35" y="580" as="sourcePoint"/><mxPoint x="508" y="473.35799999999995" as="targetPoint"/></mxGeometry></mxCell><mxCell id="40" value="AbstractMap" style="swimlane;fontStyle=1;align=center;verticalAlign=top;childLayout=stackLayout;horizontal=1;startSize=26;horizontalStack=0;resizeParent=1;resizeParentMax=0;resizeLast=0;collapsible=1;marginBottom=0;" parent="1" vertex="1"><mxGeometry x="745" y="460" width="240" height="360" as="geometry"><mxRectangle x="440" y="280" width="140" height="26" as="alternateBounds"/></mxGeometry></mxCell><mxCell id="43" value="- keySet: Set&lt;K&gt;&#10;- values: Collection&lt;V&gt;" style="text;strokeColor=none;fillColor=none;align=left;verticalAlign=top;spacingLeft=4;spacingRight=4;overflow=hidden;rotatable=0;points=[[0,0.5],[1,0.5]];portConstraint=eastwest;" parent="40" vertex="1"><mxGeometry y="26" width="240" height="44" as="geometry"/></mxCell><mxCell id="42" value="" style="line;strokeWidth=1;fillColor=none;align=left;verticalAlign=middle;spacingTop=-1;spacingLeft=3;spacingRight=3;rotatable=0;labelPosition=right;points=[];portConstraint=eastwest;" parent="40" vertex="1"><mxGeometry y="70" width="240" height="8" as="geometry"/></mxCell><mxCell id="41" value="+ size(): int&#10;+ isEmpty(): boolean&#10;+ containsValue(Object): boolean&#10;+ containsKey(Object): boolean&#10;+ get(Object): V&#10;+ put(K, V): V&#10;+ remove(Object): boolean&#10;+ putAll(Map&lt;? extends K, ? extends V&gt;): void&#10;+ clear(): void&#10;+ keySet(): Set&lt;K&gt;&#10;+ valueSet(): Set&lt;V&gt;&#10;+ entrySet(): Set&lt;K, V&gt;&#10;+ equals(Object o): boolean&#10;+ toArrays(): Object[]&#10;+ toArrays(T[] a): T[]&#10;+ containsAll(Collection&lt;?&gt;): boolean&#10;+ removeAll(Collection&lt;?&gt;): boolean&#10;+ retainAll(Collection&lt;?&gt;): boolean&#10;+ toString(): String" style="text;strokeColor=none;fillColor=none;align=left;verticalAlign=top;spacingLeft=4;spacingRight=4;overflow=hidden;rotatable=0;points=[[0,0.5],[1,0.5]];portConstraint=eastwest;" parent="40" vertex="1"><mxGeometry y="78" width="240" height="282" as="geometry"/></mxCell><mxCell id="44" value="«interface»&lt;br&gt;&lt;b&gt;Entry&lt;/b&gt;" style="html=1;" parent="1" vertex="1"><mxGeometry x="1120" y="160" width="110" height="50" as="geometry"/></mxCell><mxCell id="45" value="Use" style="endArrow=open;endSize=12;dashed=1;html=1;rounded=0;exitX=0;exitY=0.5;exitDx=0;exitDy=0;entryX=1;entryY=0.5;entryDx=0;entryDy=0;" parent="1" source="44" target="11" edge="1"><mxGeometry width="160" relative="1" as="geometry"><mxPoint x="670" y="260" as="sourcePoint"/><mxPoint x="830" y="260" as="targetPoint"/></mxGeometry></mxCell><mxCell id="46" value="" style="endArrow=block;dashed=1;endFill=0;endSize=12;html=1;rounded=0;entryX=0.5;entryY=1;entryDx=0;entryDy=0;exitX=0.5;exitY=0;exitDx=0;exitDy=0;" parent="1" source="40" target="11" edge="1"><mxGeometry width="160" relative="1" as="geometry"><mxPoint x="565" y="870" as="sourcePoint"/><mxPoint x="565" y="402" as="targetPoint"/></mxGeometry></mxCell><mxCell id="47" value="HashMap&lt;K, V&gt;" style="swimlane;fontStyle=1;align=center;verticalAlign=top;childLayout=stackLayout;horizontal=1;startSize=26;horizontalStack=0;resizeParent=1;resizeParentMax=0;resizeLast=0;collapsible=1;marginBottom=0;" parent="1" vertex="1"><mxGeometry x="1070" y="860" width="330" height="200" as="geometry"><mxRectangle x="440" y="280" width="140" height="26" as="alternateBounds"/></mxGeometry></mxCell><mxCell id="48" value="" style="line;strokeWidth=1;fillColor=none;align=left;verticalAlign=middle;spacingTop=-1;spacingLeft=3;spacingRight=3;rotatable=0;labelPosition=right;points=[];portConstraint=eastwest;" parent="47" vertex="1"><mxGeometry y="26" width="330" height="8" as="geometry"/></mxCell><mxCell id="49" value="+ add(E): boolean" style="text;strokeColor=none;fillColor=none;align=left;verticalAlign=top;spacingLeft=4;spacingRight=4;overflow=hidden;rotatable=0;points=[[0,0.5],[1,0.5]];portConstraint=eastwest;" parent="47" vertex="1"><mxGeometry y="34" width="330" height="166" as="geometry"/></mxCell><mxCell id="50" value="Extends" style="endArrow=block;endSize=16;endFill=0;html=1;rounded=0;exitX=0.534;exitY=0.001;exitDx=0;exitDy=0;entryX=1;entryY=0.5;entryDx=0;entryDy=0;exitPerimeter=0;" parent="1" source="47" target="41" edge="1"><mxGeometry width="160" relative="1" as="geometry"><mxPoint x="565" y="869.9999999999998" as="sourcePoint"/><mxPoint x="305.75" y="683.1320000000001" as="targetPoint"/></mxGeometry></mxCell><mxCell id="51" value="«interface»&lt;br&gt;&lt;b&gt;SortedMap&lt;/b&gt;" style="html=1;" parent="1" vertex="1"><mxGeometry x="1370" y="270" width="110" height="50" as="geometry"/></mxCell><mxCell id="52" value="" style="endArrow=block;dashed=1;endFill=0;endSize=12;html=1;rounded=0;entryX=0.75;entryY=1;entryDx=0;entryDy=0;exitX=0.5;exitY=0;exitDx=0;exitDy=0;" parent="1" source="51" target="11" edge="1"><mxGeometry width="160" relative="1" as="geometry"><mxPoint x="875" y="470" as="sourcePoint"/><mxPoint x="875" y="220" as="targetPoint"/></mxGeometry></mxCell><mxCell id="53" value="«interface»&lt;br&gt;&lt;b&gt;NavigableMap&lt;/b&gt;" style="html=1;" parent="1" vertex="1"><mxGeometry x="1370" y="370" width="110" height="50" as="geometry"/></mxCell><mxCell id="54" value="" style="endArrow=block;dashed=1;endFill=0;endSize=12;html=1;rounded=0;entryX=0.5;entryY=1;entryDx=0;entryDy=0;exitX=0.5;exitY=0;exitDx=0;exitDy=0;" parent="1" source="53" target="51" edge="1"><mxGeometry width="160" relative="1" as="geometry"><mxPoint x="1185" y="302" as="sourcePoint"/><mxPoint x="902.5" y="220" as="targetPoint"/></mxGeometry></mxCell><mxCell id="55" value="«interface»&lt;br&gt;&lt;b&gt;SortedSet&lt;/b&gt;" style="html=1;" parent="1" vertex="1"><mxGeometry x="-650" y="460" width="110" height="50" as="geometry"/></mxCell><mxCell id="56" value="«interface»&lt;br&gt;&lt;b&gt;NavigableSet&lt;/b&gt;" style="html=1;" parent="1" vertex="1"><mxGeometry x="-650" y="590" width="110" height="50" as="geometry"/></mxCell><mxCell id="57" value="Extends" style="endArrow=block;endSize=16;endFill=0;html=1;rounded=0;exitX=0.5;exitY=0;exitDx=0;exitDy=0;entryX=0;entryY=0.5;entryDx=0;entryDy=0;" parent="1" source="55" target="7" edge="1"><mxGeometry width="160" relative="1" as="geometry"><mxPoint x="-365" y="352" as="sourcePoint"/><mxPoint x="250" y="195" as="targetPoint"/></mxGeometry></mxCell><mxCell id="58" value="Extends" style="endArrow=block;endSize=16;endFill=0;html=1;rounded=0;exitX=0.5;exitY=0;exitDx=0;exitDy=0;entryX=0.5;entryY=1;entryDx=0;entryDy=0;" parent="1" source="56" target="55" edge="1"><mxGeometry width="160" relative="1" as="geometry"><mxPoint x="-585" y="470" as="sourcePoint"/><mxPoint x="-420" y="377" as="targetPoint"/></mxGeometry></mxCell><mxCell id="59" value="TreeMap&lt;K, V&gt;" style="swimlane;fontStyle=1;align=center;verticalAlign=top;childLayout=stackLayout;horizontal=1;startSize=26;horizontalStack=0;resizeParent=1;resizeParentMax=0;resizeLast=0;collapsible=1;marginBottom=0;" parent="1" vertex="1"><mxGeometry x="1490" y="860" width="330" height="200" as="geometry"><mxRectangle x="440" y="280" width="140" height="26" as="alternateBounds"/></mxGeometry></mxCell><mxCell id="60" value="" style="line;strokeWidth=1;fillColor=none;align=left;verticalAlign=middle;spacingTop=-1;spacingLeft=3;spacingRight=3;rotatable=0;labelPosition=right;points=[];portConstraint=eastwest;" parent="59" vertex="1"><mxGeometry y="26" width="330" height="8" as="geometry"/></mxCell><mxCell id="61" value="+ add(E): boolean" style="text;strokeColor=none;fillColor=none;align=left;verticalAlign=top;spacingLeft=4;spacingRight=4;overflow=hidden;rotatable=0;points=[[0,0.5],[1,0.5]];portConstraint=eastwest;" parent="59" vertex="1"><mxGeometry y="34" width="330" height="166" as="geometry"/></mxCell><mxCell id="62" value="Extends" style="endArrow=block;endSize=16;endFill=0;html=1;rounded=0;exitX=0.5;exitY=0;exitDx=0;exitDy=0;entryX=1.014;entryY=0.367;entryDx=0;entryDy=0;entryPerimeter=0;" parent="1" source="59" target="41" edge="1"><mxGeometry width="160" relative="1" as="geometry"><mxPoint x="1256.2199999999998" y="870.2" as="sourcePoint"/><mxPoint x="995" y="688.9999999999998" as="targetPoint"/></mxGeometry></mxCell><mxCell id="63" value="HashTable&lt;K, V&gt;" style="swimlane;fontStyle=1;align=center;verticalAlign=top;childLayout=stackLayout;horizontal=1;startSize=26;horizontalStack=0;resizeParent=1;resizeParentMax=0;resizeLast=0;collapsible=1;marginBottom=0;" parent="1" vertex="1"><mxGeometry x="1930" y="860" width="330" height="200" as="geometry"><mxRectangle x="440" y="280" width="140" height="26" as="alternateBounds"/></mxGeometry></mxCell><mxCell id="64" value="" style="line;strokeWidth=1;fillColor=none;align=left;verticalAlign=middle;spacingTop=-1;spacingLeft=3;spacingRight=3;rotatable=0;labelPosition=right;points=[];portConstraint=eastwest;" parent="63" vertex="1"><mxGeometry y="26" width="330" height="8" as="geometry"/></mxCell><mxCell id="65" value="+ add(E): boolean" style="text;strokeColor=none;fillColor=none;align=left;verticalAlign=top;spacingLeft=4;spacingRight=4;overflow=hidden;rotatable=0;points=[[0,0.5],[1,0.5]];portConstraint=eastwest;" parent="63" vertex="1"><mxGeometry y="34" width="330" height="166" as="geometry"/></mxCell><mxCell id="66" value="" style="endArrow=block;dashed=1;endFill=0;endSize=12;html=1;rounded=0;exitX=0.5;exitY=0;exitDx=0;exitDy=0;" parent="1" source="63" edge="1"><mxGeometry width="160" relative="1" as="geometry"><mxPoint x="875" y="470" as="sourcePoint"/><mxPoint x="890" y="210" as="targetPoint"/></mxGeometry></mxCell><mxCell id="67" value="" style="endArrow=block;dashed=1;endFill=0;endSize=12;html=1;rounded=0;exitX=0.5;exitY=0;exitDx=0;exitDy=0;entryX=0.5;entryY=1;entryDx=0;entryDy=0;" parent="1" source="59" target="53" edge="1"><mxGeometry width="160" relative="1" as="geometry"><mxPoint x="2105" y="870" as="sourcePoint"/><mxPoint x="900" y="220" as="targetPoint"/></mxGeometry></mxCell><mxCell id="68" value="LinkedHashMap&lt;K, V&gt;" style="swimlane;fontStyle=1;align=center;verticalAlign=top;childLayout=stackLayout;horizontal=1;startSize=26;horizontalStack=0;resizeParent=1;resizeParentMax=0;resizeLast=0;collapsible=1;marginBottom=0;" parent="1" vertex="1"><mxGeometry x="1080" y="1250" width="330" height="200" as="geometry"><mxRectangle x="440" y="280" width="140" height="26" as="alternateBounds"/></mxGeometry></mxCell><mxCell id="69" value="" style="line;strokeWidth=1;fillColor=none;align=left;verticalAlign=middle;spacingTop=-1;spacingLeft=3;spacingRight=3;rotatable=0;labelPosition=right;points=[];portConstraint=eastwest;" parent="68" vertex="1"><mxGeometry y="26" width="330" height="8" as="geometry"/></mxCell><mxCell id="70" value="+ add(E): boolean" style="text;strokeColor=none;fillColor=none;align=left;verticalAlign=top;spacingLeft=4;spacingRight=4;overflow=hidden;rotatable=0;points=[[0,0.5],[1,0.5]];portConstraint=eastwest;" parent="68" vertex="1"><mxGeometry y="34" width="330" height="166" as="geometry"/></mxCell><mxCell id="71" value="Extends" style="endArrow=block;endSize=16;endFill=0;html=1;rounded=0;exitX=0.5;exitY=0;exitDx=0;exitDy=0;entryX=0.52;entryY=1.014;entryDx=0;entryDy=0;entryPerimeter=0;" parent="1" source="68" target="49" edge="1"><mxGeometry width="160" relative="1" as="geometry"><mxPoint x="1256.2199999999998" y="870.2" as="sourcePoint"/><mxPoint x="995" y="688.9999999999998" as="targetPoint"/></mxGeometry></mxCell><mxCell id="72" value="ArrayList&lt;E&gt;" style="swimlane;fontStyle=1;align=center;verticalAlign=top;childLayout=stackLayout;horizontal=1;startSize=26;horizontalStack=0;resizeParent=1;resizeParentMax=0;resizeLast=0;collapsible=1;marginBottom=0;" parent="1" vertex="1"><mxGeometry x="580" y="1240" width="330" height="200" as="geometry"><mxRectangle x="440" y="280" width="140" height="26" as="alternateBounds"/></mxGeometry></mxCell><mxCell id="73" value="" style="line;strokeWidth=1;fillColor=none;align=left;verticalAlign=middle;spacingTop=-1;spacingLeft=3;spacingRight=3;rotatable=0;labelPosition=right;points=[];portConstraint=eastwest;" parent="72" vertex="1"><mxGeometry y="26" width="330" height="8" as="geometry"/></mxCell><mxCell id="74" value="+ add(E): boolean&#10;+ index(Object): int&#10;+ lastIndexOf(Object): int&#10;+ clear(): void&#10;+ addAll(int index, Collection&lt;? extends T&gt;): boolean&#10;+ iterator(): Iterator&#10;+ listIterator(): ListIterator&#10;+ listIterator(int index): ListIterator&#10;+ equal(Object): boolean&#10;+ hashCode(): String&#10;+ subList(int start, int end): List&lt;E&gt;" style="text;strokeColor=none;fillColor=none;align=left;verticalAlign=top;spacingLeft=4;spacingRight=4;overflow=hidden;rotatable=0;points=[[0,0.5],[1,0.5]];portConstraint=eastwest;" parent="72" vertex="1"><mxGeometry y="34" width="330" height="166" as="geometry"/></mxCell><mxCell id="75" value="LinkedList&lt;E&gt;" style="swimlane;fontStyle=1;align=center;verticalAlign=top;childLayout=stackLayout;horizontal=1;startSize=26;horizontalStack=0;resizeParent=1;resizeParentMax=0;resizeLast=0;collapsible=1;marginBottom=0;" parent="1" vertex="1"><mxGeometry x="580" y="1520" width="330" height="200" as="geometry"><mxRectangle x="440" y="280" width="140" height="26" as="alternateBounds"/></mxGeometry></mxCell><mxCell id="76" value="" style="line;strokeWidth=1;fillColor=none;align=left;verticalAlign=middle;spacingTop=-1;spacingLeft=3;spacingRight=3;rotatable=0;labelPosition=right;points=[];portConstraint=eastwest;" parent="75" vertex="1"><mxGeometry y="26" width="330" height="8" as="geometry"/></mxCell><mxCell id="77" value="+ add(E): boolean&#10;+ index(Object): int&#10;+ lastIndexOf(Object): int&#10;+ clear(): void&#10;+ addAll(int index, Collection&lt;? extends T&gt;): boolean&#10;+ iterator(): Iterator&#10;+ listIterator(): ListIterator&#10;+ listIterator(int index): ListIterator&#10;+ equal(Object): boolean&#10;+ hashCode(): String&#10;+ subList(int start, int end): List&lt;E&gt;" style="text;strokeColor=none;fillColor=none;align=left;verticalAlign=top;spacingLeft=4;spacingRight=4;overflow=hidden;rotatable=0;points=[[0,0.5],[1,0.5]];portConstraint=eastwest;" parent="75" vertex="1"><mxGeometry y="34" width="330" height="166" as="geometry"/></mxCell><mxCell id="78" value="Vector&lt;E&gt;" style="swimlane;fontStyle=1;align=center;verticalAlign=top;childLayout=stackLayout;horizontal=1;startSize=26;horizontalStack=0;resizeParent=1;resizeParentMax=0;resizeLast=0;collapsible=1;marginBottom=0;" parent="1" vertex="1"><mxGeometry x="580" y="1780" width="330" height="200" as="geometry"><mxRectangle x="440" y="280" width="140" height="26" as="alternateBounds"/></mxGeometry></mxCell><mxCell id="79" value="" style="line;strokeWidth=1;fillColor=none;align=left;verticalAlign=middle;spacingTop=-1;spacingLeft=3;spacingRight=3;rotatable=0;labelPosition=right;points=[];portConstraint=eastwest;" parent="78" vertex="1"><mxGeometry y="26" width="330" height="8" as="geometry"/></mxCell><mxCell id="80" value="+ add(E): boolean&#10;+ index(Object): int&#10;+ lastIndexOf(Object): int&#10;+ clear(): void&#10;+ addAll(int index, Collection&lt;? extends T&gt;): boolean&#10;+ iterator(): Iterator&#10;+ listIterator(): ListIterator&#10;+ listIterator(int index): ListIterator&#10;+ equal(Object): boolean&#10;+ hashCode(): String&#10;+ subList(int start, int end): List&lt;E&gt;" style="text;strokeColor=none;fillColor=none;align=left;verticalAlign=top;spacingLeft=4;spacingRight=4;overflow=hidden;rotatable=0;points=[[0,0.5],[1,0.5]];portConstraint=eastwest;" parent="78" vertex="1"><mxGeometry y="34" width="330" height="166" as="geometry"/></mxCell><mxCell id="81" value="«interface»&lt;br&gt;&lt;b&gt;Deque&lt;/b&gt;" style="html=1;" parent="1" vertex="1"><mxGeometry x="-150" y="500" width="110" height="50" as="geometry"/></mxCell><mxCell id="82" value="Extends" style="endArrow=block;endSize=16;endFill=0;html=1;rounded=0;exitX=0.5;exitY=0;exitDx=0;exitDy=0;entryX=0.25;entryY=1;entryDx=0;entryDy=0;" parent="1" source="81" target="27" edge="1"><mxGeometry width="160" relative="1" as="geometry"><mxPoint x="35" y="352" as="sourcePoint"/><mxPoint x="259.57000000000016" y="221.95000000000005" as="targetPoint"/></mxGeometry></mxCell><mxCell id="83" value="Extends" style="endArrow=block;endSize=16;endFill=0;html=1;rounded=0;exitX=0;exitY=0.5;exitDx=0;exitDy=0;" parent="1" source="74" edge="1"><mxGeometry width="160" relative="1" as="geometry"><mxPoint x="565" y="870" as="sourcePoint"/><mxPoint x="457" y="1060" as="targetPoint"/><Array as="points"><mxPoint x="457" y="1357"/></Array></mxGeometry></mxCell><mxCell id="84" value="Extends" style="endArrow=block;endSize=16;endFill=0;html=1;rounded=0;exitX=-0.004;exitY=0.362;exitDx=0;exitDy=0;exitPerimeter=0;entryX=0.165;entryY=1.018;entryDx=0;entryDy=0;entryPerimeter=0;" parent="1" source="77" target="24" edge="1"><mxGeometry width="160" relative="1" as="geometry"><mxPoint x="590" y="1367" as="sourcePoint"/><mxPoint x="460" y="1070" as="targetPoint"/><Array as="points"><mxPoint x="443" y="1614"/></Array></mxGeometry></mxCell><mxCell id="85" value="Extends" style="endArrow=block;endSize=16;endFill=0;html=1;rounded=0;exitX=0;exitY=0.5;exitDx=0;exitDy=0;entryX=0.058;entryY=1.002;entryDx=0;entryDy=0;entryPerimeter=0;" parent="1" source="80" target="24" edge="1"><mxGeometry width="160" relative="1" as="geometry"><mxPoint x="588.6799999999998" y="1624.092" as="sourcePoint"/><mxPoint x="454.4500000000003" y="1072.988" as="targetPoint"/><Array as="points"><mxPoint x="409" y="1897"/></Array></mxGeometry></mxCell><mxCell id="86" value="Stack&lt;E&gt;" style="swimlane;fontStyle=1;align=center;verticalAlign=top;childLayout=stackLayout;horizontal=1;startSize=26;horizontalStack=0;resizeParent=1;resizeParentMax=0;resizeLast=0;collapsible=1;marginBottom=0;" parent="1" vertex="1"><mxGeometry x="580" y="2090" width="330" height="200" as="geometry"><mxRectangle x="440" y="280" width="140" height="26" as="alternateBounds"/></mxGeometry></mxCell><mxCell id="87" value="" style="line;strokeWidth=1;fillColor=none;align=left;verticalAlign=middle;spacingTop=-1;spacingLeft=3;spacingRight=3;rotatable=0;labelPosition=right;points=[];portConstraint=eastwest;" parent="86" vertex="1"><mxGeometry y="26" width="330" height="8" as="geometry"/></mxCell><mxCell id="88" value="+ push(E): E&#10;+ pop(): E&#10;+ peek(): E" style="text;strokeColor=none;fillColor=none;align=left;verticalAlign=top;spacingLeft=4;spacingRight=4;overflow=hidden;rotatable=0;points=[[0,0.5],[1,0.5]];portConstraint=eastwest;" parent="86" vertex="1"><mxGeometry y="34" width="330" height="166" as="geometry"/></mxCell><mxCell id="89" value="Extends" style="endArrow=block;endSize=16;endFill=0;html=1;rounded=0;exitX=0.5;exitY=0;exitDx=0;exitDy=0;entryX=0.501;entryY=1.032;entryDx=0;entryDy=0;entryPerimeter=0;" parent="1" source="86" target="80" edge="1"><mxGeometry width="160" relative="1" as="geometry"><mxPoint x="893" y="2290" as="sourcePoint"/><mxPoint x="770" y="1993" as="targetPoint"/><Array as="points"/></mxGeometry></mxCell><mxCell id="90" value="PriorityQueue&lt;E&gt;" style="swimlane;fontStyle=1;align=center;verticalAlign=top;childLayout=stackLayout;horizontal=1;startSize=26;horizontalStack=0;resizeParent=1;resizeParentMax=0;resizeLast=0;collapsible=1;marginBottom=0;" parent="1" vertex="1"><mxGeometry y="1240" width="330" height="180" as="geometry"><mxRectangle x="440" y="280" width="140" height="26" as="alternateBounds"/></mxGeometry></mxCell><mxCell id="91" value="" style="line;strokeWidth=1;fillColor=none;align=left;verticalAlign=middle;spacingTop=-1;spacingLeft=3;spacingRight=3;rotatable=0;labelPosition=right;points=[];portConstraint=eastwest;" parent="90" vertex="1"><mxGeometry y="26" width="330" height="8" as="geometry"/></mxCell><mxCell id="92" value="+ add(E): boolean&#10;+ remove(): E&#10;+ element(): E&#10;+ clear(): void&#10;+ addAll(Collection&lt;? extends T&gt;): boolean" style="text;strokeColor=none;fillColor=none;align=left;verticalAlign=top;spacingLeft=4;spacingRight=4;overflow=hidden;rotatable=0;points=[[0,0.5],[1,0.5]];portConstraint=eastwest;" parent="90" vertex="1"><mxGeometry y="34" width="330" height="146" as="geometry"/></mxCell><mxCell id="93" value="EnumSet&lt;E&gt;" style="swimlane;fontStyle=1;align=center;verticalAlign=top;childLayout=stackLayout;horizontal=1;startSize=26;horizontalStack=0;resizeParent=1;resizeParentMax=0;resizeLast=0;collapsible=1;marginBottom=0;" parent="1" vertex="1"><mxGeometry x="-730" y="1240" width="330" height="180" as="geometry"><mxRectangle x="440" y="280" width="140" height="26" as="alternateBounds"/></mxGeometry></mxCell><mxCell id="94" value="" style="line;strokeWidth=1;fillColor=none;align=left;verticalAlign=middle;spacingTop=-1;spacingLeft=3;spacingRight=3;rotatable=0;labelPosition=right;points=[];portConstraint=eastwest;" parent="93" vertex="1"><mxGeometry y="26" width="330" height="8" as="geometry"/></mxCell><mxCell id="95" value="+ equals(Object o): boolean&#10;+ hashCode(): int&#10;+ removeAll(): boolean" style="text;strokeColor=none;fillColor=none;align=left;verticalAlign=top;spacingLeft=4;spacingRight=4;overflow=hidden;rotatable=0;points=[[0,0.5],[1,0.5]];portConstraint=eastwest;" parent="93" vertex="1"><mxGeometry y="34" width="330" height="146" as="geometry"/></mxCell><mxCell id="96" value="Extends" style="endArrow=block;endSize=16;endFill=0;html=1;rounded=0;exitX=0;exitY=0.5;exitDx=0;exitDy=0;" parent="1" edge="1"><mxGeometry width="160" relative="1" as="geometry"><mxPoint y="1337" as="sourcePoint"/><mxPoint x="-123" y="1040" as="targetPoint"/><Array as="points"><mxPoint x="-123" y="1337"/></Array></mxGeometry></mxCell><mxCell id="97" value="Extends" style="endArrow=block;endSize=16;endFill=0;html=1;rounded=0;exitX=1;exitY=0.5;exitDx=0;exitDy=0;entryX=0.879;entryY=1.029;entryDx=0;entryDy=0;entryPerimeter=0;" parent="1" source="95" target="37" edge="1"><mxGeometry width="160" relative="1" as="geometry"><mxPoint x="10" y="1347" as="sourcePoint"/><mxPoint x="-113" y="1050" as="targetPoint"/><Array as="points"><mxPoint x="-250" y="1347"/></Array></mxGeometry></mxCell><mxCell id="98" value="TreeSet&lt;E&gt;" style="swimlane;fontStyle=1;align=center;verticalAlign=top;childLayout=stackLayout;horizontal=1;startSize=26;horizontalStack=0;resizeParent=1;resizeParentMax=0;resizeLast=0;collapsible=1;marginBottom=0;" parent="1" vertex="1"><mxGeometry x="-730" y="1460" width="330" height="180" as="geometry"><mxRectangle x="440" y="280" width="140" height="26" as="alternateBounds"/></mxGeometry></mxCell><mxCell id="99" value="" style="line;strokeWidth=1;fillColor=none;align=left;verticalAlign=middle;spacingTop=-1;spacingLeft=3;spacingRight=3;rotatable=0;labelPosition=right;points=[];portConstraint=eastwest;" parent="98" vertex="1"><mxGeometry y="26" width="330" height="8" as="geometry"/></mxCell><mxCell id="100" value="+ equals(Object o): boolean&#10;+ hashCode(): int&#10;+ removeAll(): boolean" style="text;strokeColor=none;fillColor=none;align=left;verticalAlign=top;spacingLeft=4;spacingRight=4;overflow=hidden;rotatable=0;points=[[0,0.5],[1,0.5]];portConstraint=eastwest;" parent="98" vertex="1"><mxGeometry y="34" width="330" height="146" as="geometry"/></mxCell><mxCell id="101" value="HashSet&lt;E&gt;" style="swimlane;fontStyle=1;align=center;verticalAlign=top;childLayout=stackLayout;horizontal=1;startSize=26;horizontalStack=0;resizeParent=1;resizeParentMax=0;resizeLast=0;collapsible=1;marginBottom=0;" parent="1" vertex="1"><mxGeometry x="-730" y="1680" width="330" height="180" as="geometry"><mxRectangle x="440" y="280" width="140" height="26" as="alternateBounds"/></mxGeometry></mxCell><mxCell id="102" value="" style="line;strokeWidth=1;fillColor=none;align=left;verticalAlign=middle;spacingTop=-1;spacingLeft=3;spacingRight=3;rotatable=0;labelPosition=right;points=[];portConstraint=eastwest;" parent="101" vertex="1"><mxGeometry y="26" width="330" height="8" as="geometry"/></mxCell><mxCell id="103" value="+ equals(Object o): boolean&#10;+ hashCode(): int&#10;+ removeAll(): boolean" style="text;strokeColor=none;fillColor=none;align=left;verticalAlign=top;spacingLeft=4;spacingRight=4;overflow=hidden;rotatable=0;points=[[0,0.5],[1,0.5]];portConstraint=eastwest;" parent="101" vertex="1"><mxGeometry y="34" width="330" height="146" as="geometry"/></mxCell><mxCell id="104" value="LinkdedHashSet&lt;E&gt;" style="swimlane;fontStyle=1;align=center;verticalAlign=top;childLayout=stackLayout;horizontal=1;startSize=26;horizontalStack=0;resizeParent=1;resizeParentMax=0;resizeLast=0;collapsible=1;marginBottom=0;" parent="1" vertex="1"><mxGeometry x="-730" y="1940" width="330" height="180" as="geometry"><mxRectangle x="440" y="280" width="140" height="26" as="alternateBounds"/></mxGeometry></mxCell><mxCell id="105" value="" style="line;strokeWidth=1;fillColor=none;align=left;verticalAlign=middle;spacingTop=-1;spacingLeft=3;spacingRight=3;rotatable=0;labelPosition=right;points=[];portConstraint=eastwest;" parent="104" vertex="1"><mxGeometry y="26" width="330" height="8" as="geometry"/></mxCell><mxCell id="106" value="+ equals(Object o): boolean&#10;+ hashCode(): int&#10;+ removeAll(): boolean" style="text;strokeColor=none;fillColor=none;align=left;verticalAlign=top;spacingLeft=4;spacingRight=4;overflow=hidden;rotatable=0;points=[[0,0.5],[1,0.5]];portConstraint=eastwest;" parent="104" vertex="1"><mxGeometry y="34" width="330" height="146" as="geometry"/></mxCell><mxCell id="107" value="Extends" style="endArrow=block;endSize=16;endFill=0;html=1;rounded=0;exitX=1.012;exitY=0.426;exitDx=0;exitDy=0;entryX=0.913;entryY=1.018;entryDx=0;entryDy=0;entryPerimeter=0;exitPerimeter=0;" parent="1" source="100" target="37" edge="1"><mxGeometry width="160" relative="1" as="geometry"><mxPoint x="-390" y="1357" as="sourcePoint"/><mxPoint x="-239.92999999999984" y="1054.2340000000002" as="targetPoint"/><Array as="points"><mxPoint x="-239" y="1556"/></Array></mxGeometry></mxCell><mxCell id="108" value="Extends" style="endArrow=block;endSize=16;endFill=0;html=1;rounded=0;exitX=1;exitY=0.5;exitDx=0;exitDy=0;entryX=0.949;entryY=1.019;entryDx=0;entryDy=0;entryPerimeter=0;" parent="1" source="103" target="37" edge="1"><mxGeometry width="160" relative="1" as="geometry"><mxPoint x="-386.03999999999996" y="1566.196" as="sourcePoint"/><mxPoint x="-228.71000000000004" y="1052.6280000000002" as="targetPoint"/><Array as="points"><mxPoint x="-227" y="1787"/></Array></mxGeometry></mxCell><mxCell id="109" value="Extends" style="endArrow=block;endSize=16;endFill=0;html=1;rounded=0;entryX=0.879;entryY=1.029;entryDx=0;entryDy=0;entryPerimeter=0;" parent="1" edge="1"><mxGeometry width="160" relative="1" as="geometry"><mxPoint x="-570" y="1940" as="sourcePoint"/><mxPoint x="-569.9299999999998" y="1860.0040000000001" as="targetPoint"/><Array as="points"/></mxGeometry></mxCell><mxCell id="110" value="«interface»&lt;br&gt;&lt;b&gt;BlockingQueue&lt;/b&gt;" style="html=1;" parent="1" vertex="1"><mxGeometry x="-320" y="500" width="110" height="50" as="geometry"/></mxCell><mxCell id="112" value="Extends" style="endArrow=block;endSize=16;endFill=0;html=1;rounded=0;exitX=0.5;exitY=0;exitDx=0;exitDy=0;entryX=0;entryY=1;entryDx=0;entryDy=0;" parent="1" source="110" target="27" edge="1"><mxGeometry width="160" relative="1" as="geometry"><mxPoint x="-85" y="510" as="sourcePoint"/><mxPoint x="7.5" y="402" as="targetPoint"/></mxGeometry></mxCell><mxCell id="117" value="&lt;p style=&quot;margin: 0px ; margin-top: 4px ; text-align: center&quot;&gt;&lt;i&gt;&amp;lt;&amp;lt;Interface&amp;gt;&amp;gt;&lt;/i&gt;&lt;br&gt;&lt;b&gt;BlockingQueue&amp;lt;E&amp;gt;&lt;/b&gt;&lt;br&gt;&lt;/p&gt;&lt;hr size=&quot;1&quot;&gt;&lt;p style=&quot;margin: 0px ; margin-left: 4px&quot;&gt;&lt;br&gt;&lt;/p&gt;&lt;hr size=&quot;1&quot;&gt;&lt;p style=&quot;margin: 0px ; margin-left: 4px&quot;&gt;+ take(): E&lt;br&gt;+ put(E): void&lt;/p&gt;&lt;p style=&quot;margin: 0px ; margin-left: 4px&quot;&gt;+ poll(long, TimeUnit): E&lt;/p&gt;&lt;p style=&quot;margin: 0px ; margin-left: 4px&quot;&gt;+ offer(E, long, TimeUnit):&amp;nbsp;&lt;/p&gt;" style="verticalAlign=top;align=left;overflow=fill;fontSize=12;fontFamily=Helvetica;html=1;" parent="1" vertex="1"><mxGeometry x="-800" y="2240" width="190" height="140" as="geometry"/></mxCell><mxCell id="118" value="&lt;p style=&quot;margin: 0px ; margin-top: 4px ; text-align: center&quot;&gt;&lt;b&gt;LinkedBlockingQueue&amp;lt;E&amp;gt;&lt;/b&gt;&lt;br&gt;&lt;/p&gt;&lt;hr size=&quot;1&quot;&gt;&lt;p style=&quot;margin: 0px ; margin-left: 4px&quot;&gt;&lt;br&gt;&lt;/p&gt;&lt;hr size=&quot;1&quot;&gt;&lt;p style=&quot;margin: 0px ; margin-left: 4px&quot;&gt;+ take(): E&lt;br&gt;+ put(E): void&lt;/p&gt;&lt;p style=&quot;margin: 0px ; margin-left: 4px&quot;&gt;+ poll(long, TimeUnit): E&lt;/p&gt;&lt;p style=&quot;margin: 0px ; margin-left: 4px&quot;&gt;+ offer(E, long, TimeUnit):&amp;nbsp;&lt;/p&gt;" style="verticalAlign=top;align=left;overflow=fill;fontSize=12;fontFamily=Helvetica;html=1;" parent="1" vertex="1"><mxGeometry x="-470" y="2240" width="190" height="140" as="geometry"/></mxCell><mxCell id="119" value="" style="endArrow=block;dashed=1;endFill=0;endSize=12;html=1;rounded=0;entryX=1;entryY=0.5;entryDx=0;entryDy=0;exitX=0;exitY=0.5;exitDx=0;exitDy=0;" parent="1" source="118" target="117" edge="1"><mxGeometry width="160" relative="1" as="geometry"><mxPoint x="-670" y="2500" as="sourcePoint"/><mxPoint x="-510" y="2500" as="targetPoint"/></mxGeometry></mxCell><mxCell id="121" value="&lt;p style=&quot;margin: 0px ; margin-top: 4px ; text-align: center&quot;&gt;&lt;b&gt;ArrayBlockingQueue&amp;lt;E&amp;gt;&lt;/b&gt;&lt;br&gt;&lt;/p&gt;&lt;hr size=&quot;1&quot;&gt;&lt;p style=&quot;margin: 0px ; margin-left: 4px&quot;&gt;&lt;br&gt;&lt;/p&gt;&lt;hr size=&quot;1&quot;&gt;&lt;p style=&quot;margin: 0px ; margin-left: 4px&quot;&gt;+ take(): E&lt;br&gt;+ put(E): void&lt;/p&gt;&lt;p style=&quot;margin: 0px ; margin-left: 4px&quot;&gt;+ poll(long, TimeUnit): E&lt;/p&gt;&lt;p style=&quot;margin: 0px ; margin-left: 4px&quot;&gt;+ offer(E, long, TimeUnit):&amp;nbsp;&lt;/p&gt;" style="verticalAlign=top;align=left;overflow=fill;fontSize=12;fontFamily=Helvetica;html=1;" vertex="1" parent="1"><mxGeometry x="-470" y="2450" width="190" height="140" as="geometry"/></mxCell><mxCell id="123" value="" style="endArrow=block;dashed=1;endFill=0;endSize=12;html=1;rounded=0;entryX=1;entryY=0.5;entryDx=0;entryDy=0;exitX=0.001;exitY=0.563;exitDx=0;exitDy=0;exitPerimeter=0;" edge="1" parent="1" source="121" target="117"><mxGeometry width="160" relative="1" as="geometry"><mxPoint x="-460" y="2320" as="sourcePoint"/><mxPoint x="-600" y="2320" as="targetPoint"/></mxGeometry></mxCell><mxCell id="124" value="&lt;p style=&quot;margin: 0px ; margin-top: 4px ; text-align: center&quot;&gt;&lt;b&gt;PriorityBlockingQueue&amp;lt;E&amp;gt;&lt;/b&gt;&lt;br&gt;&lt;/p&gt;&lt;hr size=&quot;1&quot;&gt;&lt;p style=&quot;margin: 0px ; margin-left: 4px&quot;&gt;&lt;br&gt;&lt;/p&gt;&lt;hr size=&quot;1&quot;&gt;&lt;p style=&quot;margin: 0px ; margin-left: 4px&quot;&gt;+ take(): E&lt;br&gt;+ put(E): void&lt;/p&gt;&lt;p style=&quot;margin: 0px ; margin-left: 4px&quot;&gt;+ poll(long, TimeUnit): E&lt;/p&gt;&lt;p style=&quot;margin: 0px ; margin-left: 4px&quot;&gt;+ offer(E, long, TimeUnit):&amp;nbsp;&lt;/p&gt;" style="verticalAlign=top;align=left;overflow=fill;fontSize=12;fontFamily=Helvetica;html=1;" vertex="1" parent="1"><mxGeometry x="-470" y="2650" width="190" height="140" as="geometry"/></mxCell><mxCell id="125" value="" style="endArrow=block;dashed=1;endFill=0;endSize=12;html=1;rounded=0;entryX=1;entryY=0.75;entryDx=0;entryDy=0;exitX=0;exitY=0.5;exitDx=0;exitDy=0;" edge="1" parent="1" source="124" target="117"><mxGeometry width="160" relative="1" as="geometry"><mxPoint x="-459.80999999999995" y="2538.82" as="sourcePoint"/><mxPoint x="-600" y="2320" as="targetPoint"/></mxGeometry></mxCell></root></mxGraphModel></diagram><diagram id="xrf_TUQn4eja0QI2MX36" name="HashMap Source Code Analysis"><mxGraphModel dx="900" dy="661" grid="1" gridSize="10" guides="1" tooltips="1" connect="1" arrows="1" fold="1" page="1" pageScale="1" pageWidth="850" pageHeight="1100" math="0" shadow="0"><root><mxCell id="8WkgSGDGLaFsKMieQ4qR-0"/><mxCell id="8WkgSGDGLaFsKMieQ4qR-1" parent="8WkgSGDGLaFsKMieQ4qR-0"/><mxCell id="8WkgSGDGLaFsKMieQ4qR-2" value="Hash Map Source Code Analysis" style="swimlane;startSize=20;horizontal=1;containerType=tree;" vertex="1" parent="8WkgSGDGLaFsKMieQ4qR-1"><mxGeometry x="40" y="40" width="920" height="126" as="geometry"/></mxCell><mxCell id="8WkgSGDGLaFsKMieQ4qR-5" value="" style="edgeStyle=entityRelationEdgeStyle;startArrow=none;endArrow=none;segment=10;curved=1;rounded=0;" edge="1" parent="8WkgSGDGLaFsKMieQ4qR-2" source="8WkgSGDGLaFsKMieQ4qR-7" target="8WkgSGDGLaFsKMieQ4qR-10"><mxGeometry relative="1" as="geometry"/></mxCell><mxCell id="8WkgSGDGLaFsKMieQ4qR-6" value="" style="edgeStyle=entityRelationEdgeStyle;startArrow=none;endArrow=none;segment=10;curved=1;rounded=0;" edge="1" parent="8WkgSGDGLaFsKMieQ4qR-2" source="8WkgSGDGLaFsKMieQ4qR-7" target="8WkgSGDGLaFsKMieQ4qR-11"><mxGeometry relative="1" as="geometry"/></mxCell><mxCell id="8WkgSGDGLaFsKMieQ4qR-7" value="HashMap" style="ellipse;whiteSpace=wrap;html=1;align=center;treeFolding=1;treeMoving=1;newEdgeStyle={&quot;edgeStyle&quot;:&quot;entityRelationEdgeStyle&quot;,&quot;startArrow&quot;:&quot;none&quot;,&quot;endArrow&quot;:&quot;none&quot;,&quot;segment&quot;:10,&quot;curved&quot;:1};" vertex="1" parent="8WkgSGDGLaFsKMieQ4qR-2"><mxGeometry x="160" y="60" width="100" height="40" as="geometry"/></mxCell><mxCell id="8WkgSGDGLaFsKMieQ4qR-10" value="Topic" style="whiteSpace=wrap;html=1;rounded=1;arcSize=50;align=center;verticalAlign=middle;strokeWidth=1;autosize=1;spacing=4;treeFolding=1;treeMoving=1;newEdgeStyle={&quot;edgeStyle&quot;:&quot;entityRelationEdgeStyle&quot;,&quot;startArrow&quot;:&quot;none&quot;,&quot;endArrow&quot;:&quot;none&quot;,&quot;segment&quot;:10,&quot;curved&quot;:1};" vertex="1" parent="8WkgSGDGLaFsKMieQ4qR-2"><mxGeometry x="20" y="40" width="80" height="20" as="geometry"/></mxCell><mxCell id="8WkgSGDGLaFsKMieQ4qR-11" value="Branch" style="whiteSpace=wrap;html=1;shape=partialRectangle;top=0;left=0;bottom=1;right=0;points=[[0,1],[1,1]];fillColor=none;align=center;verticalAlign=bottom;routingCenterY=0.5;snapToPoint=1;autosize=1;treeFolding=1;treeMoving=1;newEdgeStyle={&quot;edgeStyle&quot;:&quot;entityRelationEdgeStyle&quot;,&quot;startArrow&quot;:&quot;none&quot;,&quot;endArrow&quot;:&quot;none&quot;,&quot;segment&quot;:10,&quot;curved&quot;:1};" vertex="1" parent="8WkgSGDGLaFsKMieQ4qR-2"><mxGeometry x="20" y="80" width="72" height="26" as="geometry"/></mxCell><mxCell id="8WkgSGDGLaFsKMieQ4qR-15" value="HashTable比较" style="whiteSpace=wrap;html=1;rounded=1;arcSize=50;align=center;verticalAlign=middle;strokeWidth=1;autosize=1;spacing=4;treeFolding=1;treeMoving=1;newEdgeStyle={&quot;edgeStyle&quot;:&quot;entityRelationEdgeStyle&quot;,&quot;startArrow&quot;:&quot;none&quot;,&quot;endArrow&quot;:&quot;none&quot;,&quot;segment&quot;:10,&quot;curved&quot;:1};" vertex="1" parent="8WkgSGDGLaFsKMieQ4qR-2"><mxGeometry x="480" y="35" width="120" height="30" as="geometry"/></mxCell><mxCell id="8WkgSGDGLaFsKMieQ4qR-16" value="" style="edgeStyle=entityRelationEdgeStyle;startArrow=none;endArrow=none;segment=10;curved=1;rounded=0;" edge="1" target="8WkgSGDGLaFsKMieQ4qR-17" source="8WkgSGDGLaFsKMieQ4qR-15" parent="8WkgSGDGLaFsKMieQ4qR-2"><mxGeometry relative="1" as="geometry"><mxPoint x="445" y="90" as="sourcePoint"/></mxGeometry></mxCell><mxCell id="8WkgSGDGLaFsKMieQ4qR-17" value="相同点" style="whiteSpace=wrap;html=1;rounded=1;arcSize=50;align=center;verticalAlign=middle;strokeWidth=1;autosize=1;spacing=4;treeFolding=1;treeMoving=1;newEdgeStyle={&quot;edgeStyle&quot;:&quot;entityRelationEdgeStyle&quot;,&quot;startArrow&quot;:&quot;none&quot;,&quot;endArrow&quot;:&quot;none&quot;,&quot;segment&quot;:10,&quot;curved&quot;:1};" vertex="1" parent="8WkgSGDGLaFsKMieQ4qR-2"><mxGeometry x="670" y="35" width="80" height="30" as="geometry"/></mxCell><mxCell id="8WkgSGDGLaFsKMieQ4qR-20" value="" style="edgeStyle=entityRelationEdgeStyle;startArrow=none;endArrow=none;segment=10;curved=1;rounded=0;" edge="1" target="8WkgSGDGLaFsKMieQ4qR-21" source="8WkgSGDGLaFsKMieQ4qR-17" parent="8WkgSGDGLaFsKMieQ4qR-2"><mxGeometry relative="1" as="geometry"><mxPoint x="640" y="90" as="sourcePoint"/></mxGeometry></mxCell><mxCell id="8WkgSGDGLaFsKMieQ4qR-21" value="基于数据和链表实现" style="whiteSpace=wrap;html=1;rounded=1;arcSize=50;align=center;verticalAlign=middle;strokeWidth=1;autosize=1;spacing=4;treeFolding=1;treeMoving=1;newEdgeStyle={&quot;edgeStyle&quot;:&quot;entityRelationEdgeStyle&quot;,&quot;startArrow&quot;:&quot;none&quot;,&quot;endArrow&quot;:&quot;none&quot;,&quot;segment&quot;:10,&quot;curved&quot;:1};" vertex="1" parent="8WkgSGDGLaFsKMieQ4qR-2"><mxGeometry x="790" y="35" width="150" height="30" as="geometry"/></mxCell><mxCell id="8WkgSGDGLaFsKMieQ4qR-27" value="" style="edgeStyle=orthogonalEdgeStyle;rounded=0;orthogonalLoop=1;jettySize=auto;html=1;" edge="1" parent="8WkgSGDGLaFsKMieQ4qR-1" source="8WkgSGDGLaFsKMieQ4qR-19" target="8WkgSGDGLaFsKMieQ4qR-26"><mxGeometry relative="1" as="geometry"/></mxCell><mxCell id="8WkgSGDGLaFsKMieQ4qR-28" value="" style="edgeStyle=orthogonalEdgeStyle;rounded=0;orthogonalLoop=1;jettySize=auto;html=1;" edge="1" parent="8WkgSGDGLaFsKMieQ4qR-1" source="8WkgSGDGLaFsKMieQ4qR-19" target="8WkgSGDGLaFsKMieQ4qR-26"><mxGeometry relative="1" as="geometry"/></mxCell><mxCell id="8WkgSGDGLaFsKMieQ4qR-32" value="" style="edgeStyle=orthogonalEdgeStyle;rounded=0;orthogonalLoop=1;jettySize=auto;html=1;" edge="1" parent="8WkgSGDGLaFsKMieQ4qR-1" source="8WkgSGDGLaFsKMieQ4qR-19" target="8WkgSGDGLaFsKMieQ4qR-31"><mxGeometry relative="1" as="geometry"><Array as="points"><mxPoint x="750" y="230"/><mxPoint x="985" y="230"/></Array></mxGeometry></mxCell><mxCell id="8WkgSGDGLaFsKMieQ4qR-19" value="不同点" style="whiteSpace=wrap;html=1;rounded=1;arcSize=50;align=center;verticalAlign=middle;strokeWidth=1;autosize=1;spacing=4;treeFolding=1;treeMoving=1;newEdgeStyle={&quot;edgeStyle&quot;:&quot;entityRelationEdgeStyle&quot;,&quot;startArrow&quot;:&quot;none&quot;,&quot;endArrow&quot;:&quot;none&quot;,&quot;segment&quot;:10,&quot;curved&quot;:1};" vertex="1" parent="8WkgSGDGLaFsKMieQ4qR-1"><mxGeometry x="710" y="180" width="80" height="30" as="geometry"/></mxCell><mxCell id="8WkgSGDGLaFsKMieQ4qR-18" value="" style="edgeStyle=entityRelationEdgeStyle;startArrow=none;endArrow=none;segment=10;curved=1;rounded=0;" edge="1" target="8WkgSGDGLaFsKMieQ4qR-19" source="8WkgSGDGLaFsKMieQ4qR-15" parent="8WkgSGDGLaFsKMieQ4qR-1"><mxGeometry relative="1" as="geometry"><mxPoint x="485" y="130" as="sourcePoint"/></mxGeometry></mxCell><mxCell id="8WkgSGDGLaFsKMieQ4qR-23" value="都有初始大小，和扩容因子" style="whiteSpace=wrap;html=1;rounded=1;arcSize=50;align=center;verticalAlign=middle;strokeWidth=1;autosize=1;spacing=4;treeFolding=1;treeMoving=1;newEdgeStyle={&quot;edgeStyle&quot;:&quot;entityRelationEdgeStyle&quot;,&quot;startArrow&quot;:&quot;none&quot;,&quot;endArrow&quot;:&quot;none&quot;,&quot;segment&quot;:10,&quot;curved&quot;:1};" vertex="1" parent="8WkgSGDGLaFsKMieQ4qR-1"><mxGeometry x="830" y="120" width="180" height="30" as="geometry"/></mxCell><mxCell id="8WkgSGDGLaFsKMieQ4qR-22" value="" style="edgeStyle=entityRelationEdgeStyle;startArrow=none;endArrow=none;segment=10;curved=1;rounded=0;" edge="1" target="8WkgSGDGLaFsKMieQ4qR-23" source="8WkgSGDGLaFsKMieQ4qR-17" parent="8WkgSGDGLaFsKMieQ4qR-1"><mxGeometry relative="1" as="geometry"><mxPoint x="680" y="130" as="sourcePoint"/></mxGeometry></mxCell><mxCell id="8WkgSGDGLaFsKMieQ4qR-26" value="HashTable线程安全" style="whiteSpace=wrap;html=1;rounded=1;arcSize=50;align=center;verticalAlign=middle;strokeWidth=1;autosize=1;spacing=4;treeFolding=1;treeMoving=1;newEdgeStyle={&quot;edgeStyle&quot;:&quot;entityRelationEdgeStyle&quot;,&quot;startArrow&quot;:&quot;none&quot;,&quot;endArrow&quot;:&quot;none&quot;,&quot;segment&quot;:10,&quot;curved&quot;:1};" vertex="1" parent="8WkgSGDGLaFsKMieQ4qR-1"><mxGeometry x="835" y="180" width="150" height="30" as="geometry"/></mxCell><mxCell id="8WkgSGDGLaFsKMieQ4qR-31" value="HashTable不允许key和value为null，HashMap允许" style="whiteSpace=wrap;html=1;rounded=1;arcSize=50;align=center;verticalAlign=middle;strokeWidth=1;autosize=1;spacing=4;treeFolding=1;treeMoving=1;newEdgeStyle={&quot;edgeStyle&quot;:&quot;entityRelationEdgeStyle&quot;,&quot;startArrow&quot;:&quot;none&quot;,&quot;endArrow&quot;:&quot;none&quot;,&quot;segment&quot;:10,&quot;curved&quot;:1};" vertex="1" parent="8WkgSGDGLaFsKMieQ4qR-1"><mxGeometry x="830" y="290" width="310" height="30" as="geometry"/></mxCell><mxCell id="8WkgSGDGLaFsKMieQ4qR-36" value="" style="edgeStyle=orthogonalEdgeStyle;rounded=0;orthogonalLoop=1;jettySize=auto;html=1;" edge="1" parent="8WkgSGDGLaFsKMieQ4qR-1" source="8WkgSGDGLaFsKMieQ4qR-34" target="8WkgSGDGLaFsKMieQ4qR-35"><mxGeometry relative="1" as="geometry"/></mxCell><mxCell id="8WkgSGDGLaFsKMieQ4qR-38" value="" style="edgeStyle=orthogonalEdgeStyle;rounded=0;orthogonalLoop=1;jettySize=auto;html=1;" edge="1" parent="8WkgSGDGLaFsKMieQ4qR-1" source="8WkgSGDGLaFsKMieQ4qR-34" target="8WkgSGDGLaFsKMieQ4qR-37"><mxGeometry relative="1" as="geometry"><Array as="points"><mxPoint x="575" y="290"/><mxPoint x="775" y="290"/></Array></mxGeometry></mxCell><mxCell id="8WkgSGDGLaFsKMieQ4qR-34" value="遍历顺序" style="whiteSpace=wrap;html=1;rounded=1;arcSize=50;align=center;verticalAlign=middle;strokeWidth=1;autosize=1;spacing=4;treeFolding=1;treeMoving=1;newEdgeStyle={&quot;edgeStyle&quot;:&quot;entityRelationEdgeStyle&quot;,&quot;startArrow&quot;:&quot;none&quot;,&quot;endArrow&quot;:&quot;none&quot;,&quot;segment&quot;:10,&quot;curved&quot;:1};" vertex="1" parent="8WkgSGDGLaFsKMieQ4qR-1"><mxGeometry x="530" y="230" width="90" height="30" as="geometry"/></mxCell><mxCell id="8WkgSGDGLaFsKMieQ4qR-33" value="" style="edgeStyle=entityRelationEdgeStyle;startArrow=none;endArrow=none;segment=10;curved=1;rounded=0;" edge="1" target="8WkgSGDGLaFsKMieQ4qR-34" source="8WkgSGDGLaFsKMieQ4qR-8" parent="8WkgSGDGLaFsKMieQ4qR-1"><mxGeometry relative="1" as="geometry"><mxPoint x="340" y="160" as="sourcePoint"/></mxGeometry></mxCell><mxCell id="8WkgSGDGLaFsKMieQ4qR-35" value="添加或者减少元素后，没有顺序保证" style="whiteSpace=wrap;html=1;rounded=1;arcSize=50;align=center;verticalAlign=middle;strokeWidth=1;autosize=1;spacing=4;treeFolding=1;treeMoving=1;newEdgeStyle={&quot;edgeStyle&quot;:&quot;entityRelationEdgeStyle&quot;,&quot;startArrow&quot;:&quot;none&quot;,&quot;endArrow&quot;:&quot;none&quot;,&quot;segment&quot;:10,&quot;curved&quot;:1};" vertex="1" parent="8WkgSGDGLaFsKMieQ4qR-1"><mxGeometry x="425" y="310" width="230" height="30" as="geometry"/></mxCell><mxCell id="8WkgSGDGLaFsKMieQ4qR-37" value="也不保证不同时间同一个map顺序相同" style="whiteSpace=wrap;html=1;rounded=1;arcSize=50;align=center;verticalAlign=middle;strokeWidth=1;autosize=1;spacing=4;treeFolding=1;treeMoving=1;newEdgeStyle={&quot;edgeStyle&quot;:&quot;entityRelationEdgeStyle&quot;,&quot;startArrow&quot;:&quot;none&quot;,&quot;endArrow&quot;:&quot;none&quot;,&quot;segment&quot;:10,&quot;curved&quot;:1};" vertex="1" parent="8WkgSGDGLaFsKMieQ4qR-1"><mxGeometry x="620" y="360" width="240" height="30" as="geometry"/></mxCell><mxCell id="8WkgSGDGLaFsKMieQ4qR-41" value="" style="edgeStyle=orthogonalEdgeStyle;rounded=0;orthogonalLoop=1;jettySize=auto;html=1;" edge="1" parent="8WkgSGDGLaFsKMieQ4qR-1" source="8WkgSGDGLaFsKMieQ4qR-8" target="8WkgSGDGLaFsKMieQ4qR-40"><mxGeometry relative="1" as="geometry"/></mxCell><mxCell id="8WkgSGDGLaFsKMieQ4qR-8" value="官方注释" style="whiteSpace=wrap;html=1;rounded=1;arcSize=50;align=center;verticalAlign=middle;strokeWidth=1;autosize=1;spacing=4;treeFolding=1;treeMoving=1;newEdgeStyle={&quot;edgeStyle&quot;:&quot;entityRelationEdgeStyle&quot;,&quot;startArrow&quot;:&quot;none&quot;,&quot;endArrow&quot;:&quot;none&quot;,&quot;segment&quot;:10,&quot;curved&quot;:1};" vertex="1" parent="8WkgSGDGLaFsKMieQ4qR-1"><mxGeometry x="350" y="166" width="90" height="30" as="geometry"/></mxCell><mxCell id="8WkgSGDGLaFsKMieQ4qR-3" value="" style="edgeStyle=entityRelationEdgeStyle;startArrow=none;endArrow=none;segment=10;curved=1;rounded=0;" edge="1" parent="8WkgSGDGLaFsKMieQ4qR-1" source="8WkgSGDGLaFsKMieQ4qR-7" target="8WkgSGDGLaFsKMieQ4qR-8"><mxGeometry relative="1" as="geometry"/></mxCell><mxCell id="8WkgSGDGLaFsKMieQ4qR-14" value="" style="edgeStyle=entityRelationEdgeStyle;startArrow=none;endArrow=none;segment=10;curved=1;rounded=0;" edge="1" target="8WkgSGDGLaFsKMieQ4qR-15" source="8WkgSGDGLaFsKMieQ4qR-8" parent="8WkgSGDGLaFsKMieQ4qR-1"><mxGeometry relative="1" as="geometry"><mxPoint x="340" y="160" as="sourcePoint"/></mxGeometry></mxCell><mxCell id="8WkgSGDGLaFsKMieQ4qR-43" value="" style="edgeStyle=orthogonalEdgeStyle;rounded=0;orthogonalLoop=1;jettySize=auto;html=1;" edge="1" parent="8WkgSGDGLaFsKMieQ4qR-1" source="8WkgSGDGLaFsKMieQ4qR-40" target="8WkgSGDGLaFsKMieQ4qR-42"><mxGeometry relative="1" as="geometry"/></mxCell><mxCell id="8WkgSGDGLaFsKMieQ4qR-47" value="" style="edgeStyle=orthogonalEdgeStyle;rounded=0;orthogonalLoop=1;jettySize=auto;html=1;" edge="1" parent="8WkgSGDGLaFsKMieQ4qR-1" source="8WkgSGDGLaFsKMieQ4qR-40" target="8WkgSGDGLaFsKMieQ4qR-46"><mxGeometry relative="1" as="geometry"/></mxCell><mxCell id="8WkgSGDGLaFsKMieQ4qR-40" value="性能" style="whiteSpace=wrap;html=1;rounded=1;arcSize=50;align=center;verticalAlign=middle;strokeWidth=1;autosize=1;spacing=4;treeFolding=1;treeMoving=1;newEdgeStyle={&quot;edgeStyle&quot;:&quot;entityRelationEdgeStyle&quot;,&quot;startArrow&quot;:&quot;none&quot;,&quot;endArrow&quot;:&quot;none&quot;,&quot;segment&quot;:10,&quot;curved&quot;:1};" vertex="1" parent="8WkgSGDGLaFsKMieQ4qR-1"><mxGeometry x="365" y="440" width="60" height="30" as="geometry"/></mxCell><mxCell id="8WkgSGDGLaFsKMieQ4qR-45" value="" style="edgeStyle=orthogonalEdgeStyle;rounded=0;orthogonalLoop=1;jettySize=auto;html=1;" edge="1" parent="8WkgSGDGLaFsKMieQ4qR-1" source="8WkgSGDGLaFsKMieQ4qR-42" target="8WkgSGDGLaFsKMieQ4qR-44"><mxGeometry relative="1" as="geometry"/></mxCell><mxCell id="8WkgSGDGLaFsKMieQ4qR-42" value="基本性能" style="whiteSpace=wrap;html=1;rounded=1;arcSize=50;align=center;verticalAlign=middle;strokeWidth=1;autosize=1;spacing=4;treeFolding=1;treeMoving=1;newEdgeStyle={&quot;edgeStyle&quot;:&quot;entityRelationEdgeStyle&quot;,&quot;startArrow&quot;:&quot;none&quot;,&quot;endArrow&quot;:&quot;none&quot;,&quot;segment&quot;:10,&quot;curved&quot;:1};" vertex="1" parent="8WkgSGDGLaFsKMieQ4qR-1"><mxGeometry x="490" y="440" width="90" height="30" as="geometry"/></mxCell><mxCell id="8WkgSGDGLaFsKMieQ4qR-44" value="如果hash算法能够保证数据在table上均匀分布，那么HashMap保证常数的get和put性能" style="whiteSpace=wrap;html=1;rounded=1;arcSize=50;align=center;verticalAlign=middle;strokeWidth=1;autosize=1;spacing=4;treeFolding=1;treeMoving=1;newEdgeStyle={&quot;edgeStyle&quot;:&quot;entityRelationEdgeStyle&quot;,&quot;startArrow&quot;:&quot;none&quot;,&quot;endArrow&quot;:&quot;none&quot;,&quot;segment&quot;:10,&quot;curved&quot;:1};" vertex="1" parent="8WkgSGDGLaFsKMieQ4qR-1"><mxGeometry x="620" y="440" width="500" height="30" as="geometry"/></mxCell><mxCell id="8WkgSGDGLaFsKMieQ4qR-49" value="" style="edgeStyle=orthogonalEdgeStyle;rounded=0;orthogonalLoop=1;jettySize=auto;html=1;" edge="1" parent="8WkgSGDGLaFsKMieQ4qR-1" source="8WkgSGDGLaFsKMieQ4qR-46" target="8WkgSGDGLaFsKMieQ4qR-48"><mxGeometry relative="1" as="geometry"/></mxCell><mxCell id="8WkgSGDGLaFsKMieQ4qR-51" value="" style="edgeStyle=orthogonalEdgeStyle;rounded=0;orthogonalLoop=1;jettySize=auto;html=1;" edge="1" parent="8WkgSGDGLaFsKMieQ4qR-1" source="8WkgSGDGLaFsKMieQ4qR-46" target="8WkgSGDGLaFsKMieQ4qR-50"><mxGeometry relative="1" as="geometry"/></mxCell><mxCell id="8WkgSGDGLaFsKMieQ4qR-46" value="遍历性能" style="whiteSpace=wrap;html=1;rounded=1;arcSize=50;align=center;verticalAlign=middle;strokeWidth=1;autosize=1;spacing=4;treeFolding=1;treeMoving=1;newEdgeStyle={&quot;edgeStyle&quot;:&quot;entityRelationEdgeStyle&quot;,&quot;startArrow&quot;:&quot;none&quot;,&quot;endArrow&quot;:&quot;none&quot;,&quot;segment&quot;:10,&quot;curved&quot;:1};" vertex="1" parent="8WkgSGDGLaFsKMieQ4qR-1"><mxGeometry x="350" y="535" width="90" height="30" as="geometry"/></mxCell><mxCell id="8WkgSGDGLaFsKMieQ4qR-48" value="与bucket数量和key-value对的数量成比例" style="whiteSpace=wrap;html=1;rounded=1;arcSize=50;align=center;verticalAlign=middle;strokeWidth=1;autosize=1;spacing=4;treeFolding=1;treeMoving=1;newEdgeStyle={&quot;edgeStyle&quot;:&quot;entityRelationEdgeStyle&quot;,&quot;startArrow&quot;:&quot;none&quot;,&quot;endArrow&quot;:&quot;none&quot;,&quot;segment&quot;:10,&quot;curved&quot;:1};" vertex="1" parent="8WkgSGDGLaFsKMieQ4qR-1"><mxGeometry x="490" y="505" width="260" height="30" as="geometry"/></mxCell><mxCell id="8WkgSGDGLaFsKMieQ4qR-50" value="遍历性能" style="whiteSpace=wrap;html=1;rounded=1;arcSize=50;align=center;verticalAlign=middle;strokeWidth=1;autosize=1;spacing=4;treeFolding=1;treeMoving=1;newEdgeStyle={&quot;edgeStyle&quot;:&quot;entityRelationEdgeStyle&quot;,&quot;startArrow&quot;:&quot;none&quot;,&quot;endArrow&quot;:&quot;none&quot;,&quot;segment&quot;:10,&quot;curved&quot;:1};" vertex="1" parent="8WkgSGDGLaFsKMieQ4qR-1"><mxGeometry x="490" y="565" width="90" height="30" as="geometry"/></mxCell></root></mxGraphModel></diagram></mxfile>